<?xml version="1.0" encoding="utf-8"?>
<!-- Generator: Adobe Illustrator 19.2.0, SVG Export Plug-In . SVG Version: 6.00 Build 0)  -->
<!DOCTYPE svg PUBLIC "-//W3C//DTD SVG 1.1//EN" "http://www.w3.org/Graphics/SVG/1.1/DTD/svg11.dtd">
<svg version="1.1" id="Laag_1" xmlns="http://www.w3.org/2000/svg" xmlns:xlink="http://www.w3.org/1999/xlink" x="0px" y="0px"
	 viewBox="0 0 586.1 244.3" enable-background="new 0 0 586.1 244.3" xml:space="preserve">
<g>
	<path d="M206.9,91.7h-27v24.5c3.3,1.3,5.5,2.7,6.7,4l-1.2,10.2h-28.7l-1.2-10.2c1.1-1.4,3.3-2.7,6.7-4v-56
		c-3.4-1.2-5.6-2.6-6.7-4.2l1.2-10.2h28.7l1.2,10.2c-1.3,1.6-3.6,2.9-6.7,4.2v19.2h27V60.2c-3.4-1.2-5.6-2.6-6.7-4.2l1.2-10.2h28.7
		l1.2,10.2c-1.3,1.6-3.6,2.9-6.7,4.2v56c3.3,1.3,5.5,2.7,6.7,4l-1.2,10.2h-28.7l-1.2-10.2c1.1-1.4,3.3-2.7,6.7-4V91.7z"/>
	<path d="M240.8,78.2c0-1.2,0-2.5,0.1-3.9c7.6-4.1,15.8-6.1,24.5-6.1c8.7,0,15,1.7,18.8,5c3.8,3.3,5.7,8.8,5.7,16.5v26.1
		c2.9,0.6,5.1,1.3,6.7,2.1v10.7c-4.2,2-10.1,2.9-17.9,2.9c-0.8-2.1-1.5-4.7-2.1-7.7c-3.5,5.1-9.9,7.7-19.1,7.7
		c-5.5,0-10.2-1.6-14-4.8c-3.9-3.2-5.8-7.5-5.8-13c0-5.5,1.8-9.8,5.5-12.9c3.6-3.1,9-4.7,16.2-4.7h13.4v-5.9c0-6.4-3.4-9.6-10.2-9.6
		c-2.5,0-4.6,0.2-6.3,0.7c-0.2,3.4-0.7,6.1-1.5,8h-12C241.5,86.4,240.8,82.7,240.8,78.2z M262.9,118.9c4.2,0,7.5-1.2,9.9-3.7v-10
		h-8.6c-5.9,0-8.8,2.2-8.8,6.7c0,2,0.6,3.7,1.9,5C258.6,118.3,260.5,118.9,262.9,118.9z"/>
	<path d="M337.9,84.3c-6.2,0-10.5,1.2-12.9,3.6v28.1c6.6,1.2,11.2,2.9,13.6,5.1l-1.2,9.4h-35.1l-1.2-9.4c1.1-1.6,3.4-2.9,6.7-4.2
		V82.8c-2.9-1-5.1-2.4-6.7-4.2l1.2-9.4c4.5-1,8.5-1.5,12.1-1.5c3.6,0,6.6,0.1,8.9,0.2v7.7c1.9-2.2,4.3-4,7.2-5.5
		c2.9-1.4,5.6-2.1,8-2.1c2.4,0,4.1,0.2,5,0.6l-0.4,15.9C341.7,84.4,339.9,84.3,337.9,84.3z"/>
	<path d="M371,53.7v15.4h17.5v10.3H371v31c0,2.6,0.4,4.5,1.1,5.7c0.7,1.2,2.5,1.8,5.3,1.8c2.8,0,5.8-0.6,8.9-1.8l3.7,9.6
		c-6.3,3.2-12.7,4.8-19.3,4.8c-6.6,0-11-1.4-13.4-4.2c-2.3-2.8-3.5-6.9-3.5-12.3V79.5h-5.5L347,72c1.3-1.6,4-3.1,8.1-4.7
		c1-6.7,3.3-11.2,7-13.6H371z"/>
	<path d="M452.1,131.2l-6.3-19.4c-1.3-3.9-2.3-8.8-3.1-14.7l-0.4-2.9h-1.7c-0.8,6.4-2,12.2-3.7,17.5l-5.8,19.5h-17.4L398.4,83
		c-3.5-1.2-5.9-2.7-7.2-4.4l1.2-9.4h28.7l1.2,9.4c-1.5,1.7-4,3.2-7.5,4.4l7.1,31.3h1.7c0.9-4.3,2-8.8,3.2-13.4l8.3-31.5h13.7
		l8.2,31.3l3.1,13.6h1.7c3-13.8,5.1-23.1,6.1-27.8l0.7-3.4c-3.7-1.3-6.1-2.8-7.4-4.4l1.2-9.4h27.2l1.2,9.4c-1.4,1.9-4,3.4-7.7,4.7
		l-15.3,47.9H452.1z"/>
	<path d="M495.5,69.2c4.6-1.1,8.8-1.6,12.7-1.6c3.9,0,7.2,0.1,9.9,0.4v48.9c3.2,1.2,5.4,2.6,6.7,4.2l-1.2,9.4h-28.2l-1.2-9.4
		c1.1-1.6,3.4-2.9,6.7-4.2V82.8c-2.9-1-5.1-2.4-6.7-4.2L495.5,69.2z M509.4,60.7c-6.8,0-10.2-3.1-10.2-9.3c0-6.2,3.4-9.3,10.2-9.3
		c6.8,0,10.2,3.1,10.2,9.3C519.6,57.6,516.2,60.7,509.4,60.7z"/>
	<path d="M558,143.4c7.3,0,10.9-4.4,10.9-13.1v-5.4c-4,2.5-9,3.7-15.1,3.7c-7.7,0-13.6-2.2-17.7-6.7c-4.1-4.5-6.2-12-6.2-22.4
		c0-20.8,9.6-31.3,28.7-31.3c4.9,0,9.5,1.1,13.7,3.2c0.8-1.5,2-2.2,3.7-2.2h10v60.3c0,9-2.2,15.6-6.7,20c-4.5,4.3-11.3,6.5-20.6,6.5
		c-4.9,0-10-0.6-15.2-1.7c-5.2-1.1-9.2-2.6-11.9-4.3c-0.1-0.7-0.1-1.5-0.1-2.2c0-4.5,1.1-8.8,3.2-13h10.8c0.9,1.7,1.6,4,2,6.9
		C550.6,142.8,554.1,143.4,558,143.4z M549.4,111.6c1.7,2.5,4.5,3.7,8.6,3.7s7.7-1.1,11-3.4v-29c-3.3-1.4-6.8-2.1-10.7-2.1
		c-7.6,0-11.4,6-11.4,18C546.9,104.8,547.7,109.1,549.4,111.6z"/>
</g>
<g>
	<path fill="#878787" d="M174.6,157.5c0-0.8,0.1-1.9,0.2-3.5l0.1-0.7l-0.3,0c-0.4,1.6-0.8,2.9-1.1,3.9l-3.8,11.2h-3.8l-4-11.2
		c-0.4-0.9-0.7-1.9-1-3.2l-0.2-0.7l-0.3,0c0.2,1.7,0.3,3.1,0.3,4.2v7.5c0.7,0.3,1.2,0.6,1.6,1.1l-0.3,2.2h-5.6l-0.3-2.2
		c0.3-0.4,0.9-0.8,1.6-1.1v-13.2c-0.8-0.3-1.3-0.6-1.6-1.1l0.3-2.2h6.5l4.2,11.5c0.5,1.3,0.9,2.4,1,3.5l0.1,0.5h0.4
		c0.1-1.2,0.4-2.5,1-4l4-11.5h6.4l0.3,2.2c-0.3,0.4-0.8,0.8-1.6,1.1v13.1c0.7,0.3,1.3,0.6,1.6,1l-0.3,2.4h-6.5L173,166
		c0.3-0.4,0.8-0.7,1.6-1V157.5z"/>
	<path fill="#878787" d="M197,168.3h-13.3l-0.3-2.4c0.2-0.3,0.8-0.6,1.6-0.9v-13.1c-0.8-0.3-1.3-0.6-1.6-1l0.3-2.4h13.1v5l-2.1,0.3
		c-0.4-0.4-0.8-1.1-1.1-2.1h-4.5v4.9h4c0.2-0.6,0.5-1,0.7-1.2l1.8,0.2v5.1l-1.8,0.2c-0.2-0.2-0.5-0.6-0.7-1.2h-4v5.5h4.7
		c0.2-1,0.6-1.7,1.1-2.1l2.1,0.3V168.3z"/>
	<path fill="#878787" d="M207.9,168.3h-7.3l-0.3-2.4c0.2-0.3,0.8-0.6,1.6-0.9v-13.1c-0.8-0.3-1.3-0.6-1.6-1l0.3-2.4h6.4
		c3.1,0,5.5,0.9,7.3,2.6s2.7,4.2,2.7,7.6s-0.8,5.8-2.4,7.3S210.7,168.3,207.9,168.3z M206,165.2h2.1c1.4,0,2.6-0.4,3.4-1.3
		c0.8-0.9,1.2-2.6,1.2-5.1c0-4.8-1.8-7.2-5.4-7.2H206V165.2z"/>
	<path fill="#878787" d="M226.9,148.6l0.3,2.4c-0.3,0.4-0.8,0.7-1.6,1V165c0.8,0.3,1.3,0.6,1.6,0.9l-0.3,2.4h-6.7l-0.3-2.4
		c0.2-0.3,0.8-0.6,1.6-0.9v-13.1c-0.8-0.3-1.3-0.6-1.6-1l0.3-2.4H226.9z"/>
	<path fill="#878787" d="M241,151.9c-0.6-0.2-1.4-0.4-2.6-0.4c-1.1,0-2.1,0.5-2.8,1.5c-0.7,1-1.1,2.7-1.1,5.2c0,2.5,0.3,4.2,1,5.3
		c0.7,1,1.7,1.6,3,1.6c2,0,3.9-0.3,5.5-0.9l1,2.5c-2,1.2-4.4,1.8-7.1,1.8c-2.7,0-4.7-0.8-5.9-2.3c-1.2-1.5-1.8-4.1-1.8-7.6
		c0-3.5,0.7-6.1,2.2-7.8c1.5-1.7,3.6-2.5,6.3-2.5c2.2,0,4.2,0.6,6.2,1.8c0,0.1,0,0.3,0,0.7c0,0.3-0.1,0.9-0.2,1.7
		c-0.1,0.8-0.3,1.4-0.6,1.9h-2.7C241.3,153.9,241.1,153,241,151.9z"/>
	<path fill="#878787" d="M258.3,148.4l5.7,16.5c0.8,0.3,1.4,0.6,1.7,1l-0.3,2.4h-6.7l-0.3-2.4c0.2-0.3,0.7-0.6,1.4-0.9l-0.8-2.4
		h-5.7l-0.7,2.3c0.7,0.3,1.2,0.6,1.5,0.9l-0.3,2.4h-6.5l-0.3-2.4c0.3-0.4,1-0.8,1.9-1.1l5.5-16.4H258.3z M255.9,152.4
		c0,1.2-0.2,2.5-0.7,4.1l-1.1,3.5h4.1l-1.1-3.5c-0.4-1.3-0.7-2.5-0.7-3.6l0-0.5H255.9z"/>
	<path fill="#878787" d="M281.4,168.3h-13.1l-0.3-2.4c0.2-0.3,0.8-0.6,1.6-0.9v-13.1c-0.8-0.3-1.3-0.6-1.6-1l0.3-2.4h6.7l0.3,2.4
		c-0.3,0.4-0.8,0.7-1.6,1v13.3h4.5c0.2-1,0.6-1.7,1.1-2.1l2.1,0.3V168.3z"/>
	<path fill="#878787" d="M305,148.6v5l-2.1,0.3c-0.4-0.4-0.8-1.1-1.1-2.1h-4.5v5.2h4c0.2-0.6,0.5-1,0.7-1.2l1.8,0.2v5.1l-1.8,0.2
		c-0.2-0.2-0.5-0.6-0.7-1.2h-4v4.8c1.3,0.3,2.2,0.7,2.8,1.2l-0.3,2.4h-7.9l-0.3-2.4c0.2-0.3,0.8-0.6,1.6-0.9v-13.1
		c-0.8-0.3-1.3-0.6-1.6-1l0.3-2.4H305z"/>
	<path fill="#878787" d="M316.1,168.5c-2.7,0-4.7-0.8-6.1-2.3c-1.3-1.6-2-4.1-2-7.6c0-3.5,0.7-6.1,2.2-7.8c1.5-1.7,3.6-2.5,6.3-2.5
		s4.8,0.7,6.1,2.2c1.3,1.5,2,4,2,7.5s-0.8,6.1-2.3,7.9C320.9,167.7,318.8,168.5,316.1,168.5z M313.3,153.1c-0.7,1-1,2.7-1,5.2
		s0.4,4.3,1.1,5.4s1.7,1.7,3,1.7s2.3-0.5,3-1.6c0.7-1.1,1.1-2.8,1.1-5.3c0-4.6-1.4-6.9-4.1-6.9C315,151.6,314,152.1,313.3,153.1z"/>
	<path fill="#878787" d="M341.4,166.7c-1.1,1.2-3,1.8-5.5,1.8c-2.5,0-4.3-0.6-5.3-1.8c-1-1.2-1.5-3.1-1.5-5.6v-9.2
		c-0.7-0.3-1.3-0.6-1.6-1l0.3-2.4h6.7l0.3,2.4c-0.3,0.4-0.8,0.7-1.6,1v9.4c0,1.4,0.2,2.4,0.7,3s1.3,1,2.4,1c1.2,0,2-0.3,2.5-1
		c0.5-0.7,0.7-1.7,0.7-3v-9.4c-0.8-0.3-1.3-0.6-1.6-1l0.3-2.4h6.3l0.3,2.4c-0.3,0.4-0.8,0.7-1.6,1v9.2
		C343.1,163.7,342.5,165.5,341.4,166.7z"/>
	<path fill="#878787" d="M352.1,157.5v7.5c0.7,0.3,1.2,0.6,1.6,1.1l-0.3,2.2h-5.6l-0.3-2.2c0.3-0.4,0.9-0.8,1.6-1.1v-13.2
		c-0.8-0.3-1.3-0.6-1.6-1.1l0.3-2.2h5.9l5.7,11.1c0.4,0.8,0.8,1.9,1.2,3.2l0.2,0.7l0.3-0.1c-0.3-1.7-0.4-3.1-0.4-4.2v-7.4
		c-0.7-0.3-1.2-0.6-1.6-1.1l0.3-2.2h5.6l0.3,2.2c-0.4,0.5-0.9,0.8-1.6,1.1v16.5h-4.5l-5.8-11.2c-0.4-0.8-0.8-1.9-1.2-3.2l-0.2-0.7
		l-0.3,0.1C351.9,155,352.1,156.4,352.1,157.5z"/>
	<path fill="#878787" d="M375.8,168.3h-7.3l-0.3-2.4c0.2-0.3,0.8-0.6,1.6-0.9v-13.1c-0.8-0.3-1.3-0.6-1.6-1l0.3-2.4h6.4
		c3.1,0,5.5,0.9,7.3,2.6s2.7,4.2,2.7,7.6s-0.8,5.8-2.4,7.3S378.6,168.3,375.8,168.3z M373.9,165.2h2.1c1.4,0,2.6-0.4,3.4-1.3
		c0.8-0.9,1.2-2.6,1.2-5.1c0-4.8-1.8-7.2-5.4-7.2h-1.3V165.2z"/>
	<path fill="#878787" d="M397.7,148.4l5.7,16.5c0.8,0.3,1.4,0.6,1.7,1l-0.3,2.4h-6.7l-0.3-2.4c0.2-0.3,0.7-0.6,1.4-0.9l-0.8-2.4
		h-5.7L392,165c0.7,0.3,1.2,0.6,1.5,0.9l-0.3,2.4h-6.5l-0.3-2.4c0.3-0.4,1-0.8,1.9-1.1l5.5-16.4H397.7z M395.3,152.4
		c0,1.2-0.2,2.5-0.7,4.1l-1.1,3.5h4.1l-1.1-3.5c-0.4-1.3-0.7-2.5-0.7-3.6l0-0.5H395.3z"/>
	<path fill="#878787" d="M420.8,148.6v4.1l-1.8,0.2c-0.2-0.2-0.5-0.6-0.7-1.2h-3.4V165c0.8,0.3,1.3,0.6,1.6,0.9l-0.3,2.4h-6.7
		l-0.3-2.4c0.2-0.3,0.8-0.6,1.6-0.9v-13.3h-3.4c-0.2,0.6-0.5,1-0.7,1.2l-1.8-0.2v-4.1H420.8z"/>
	<path fill="#878787" d="M430.3,148.6l0.3,2.4c-0.3,0.4-0.8,0.7-1.6,1V165c0.8,0.3,1.3,0.6,1.6,0.9l-0.3,2.4h-6.7l-0.3-2.4
		c0.2-0.3,0.8-0.6,1.6-0.9v-13.1c-0.8-0.3-1.3-0.6-1.6-1l0.3-2.4H430.3z"/>
	<path fill="#878787" d="M441.8,168.5c-2.7,0-4.7-0.8-6.1-2.3c-1.3-1.6-2-4.1-2-7.6c0-3.5,0.7-6.1,2.2-7.8c1.5-1.7,3.6-2.5,6.3-2.5
		s4.8,0.7,6.1,2.2c1.3,1.5,2,4,2,7.5s-0.8,6.1-2.3,7.9C446.6,167.7,444.5,168.5,441.8,168.5z M439,153.1c-0.7,1-1,2.7-1,5.2
		s0.4,4.3,1.1,5.4s1.7,1.7,3,1.7s2.3-0.5,3-1.6c0.7-1.1,1.1-2.8,1.1-5.3c0-4.6-1.4-6.9-4.1-6.9C440.7,151.6,439.7,152.1,439,153.1z"
		/>
	<path fill="#878787" d="M458.2,157.5v7.5c0.7,0.3,1.2,0.6,1.6,1.1l-0.3,2.2h-5.6l-0.3-2.2c0.3-0.4,0.9-0.8,1.6-1.1v-13.2
		c-0.8-0.3-1.3-0.6-1.6-1.1l0.3-2.2h5.9l5.7,11.1c0.4,0.8,0.8,1.9,1.2,3.2l0.2,0.7l0.3-0.1c-0.3-1.7-0.4-3.1-0.4-4.2v-7.4
		c-0.7-0.3-1.2-0.6-1.6-1.1l0.3-2.2h5.6l0.3,2.2c-0.4,0.5-0.9,0.8-1.6,1.1v16.5h-4.5l-5.8-11.2c-0.4-0.8-0.8-1.9-1.2-3.2l-0.2-0.7
		l-0.3,0.1C458,155,458.2,156.4,458.2,157.5z"/>
</g>
<g>
	<path fill="#E52F28" d="M80.8,179c-3,7.9-4.8,16.1-6.1,24.5c-0.8,5.7-0.5,11.3,0.6,16.9c2,9.6,7.7,16.4,15.6,21.7
		c0.9,0.6,2,1.1,2.9,2.2c-0.6-0.1-1,0-1.3-0.1c-12.6-5.6-22.5-13.7-25.9-27.8c-2.1-8.5-1.7-17-0.4-25.6c0.9-5.8,2.3-11.5,3.6-17.3
		c2-7.1,3.9-14.3,5.9-21.4c3.4-10.9,6.3-21.9,8.8-33.1c2.7-12.2,3.9-24.6,3.3-37.1c-0.5-12.8-5-24.5-11.1-35.5
		C70.4,35,62.1,25.1,50.8,18c-10.4-6.5-21.3-7.8-32.6-2.6c-0.6,0.3-1.2,0.4-2.1,0.8c0.2-1.1,0.8-1.7,1.3-2.3
		C22.8,7,30.2,3.5,38.5,1.6c22-4.9,41,1.5,57.6,16c11.2,9.8,16.7,22.9,19,37.4c2.6,17-0.2,33.3-5.3,49.5
		c-4.9,15.6-11.8,30.3-18,45.4c-1.3,3.3-2.6,6.6-3.9,9.9C85.1,166.1,82.7,172.5,80.8,179z"/>
	<path fill="#314C9A" d="M75.7,151.9c-2,7.2-4,14.5-6,21.7c-14-3.4-28.3-6.2-41.6-12.1c-7.8-3.4-14.9-7.8-20.3-14.6
		c-6-7.6-8.2-16.4-7.8-25.9c0.7-16.1,6.3-30.8,13.2-45.1c2.7-5.6,5.5-11.2,8.8-16.8c0.7,1.3,0.2,2.3-0.1,3.3
		C17.9,73.5,15,85,14.6,97c-0.3,9.9,1.7,19.3,7.4,27.5c3.1,4.5,7.8,7.4,12.3,10.3c8.7,5.6,18.4,9,28.1,12.4
		C66.8,148.8,71.3,150.3,75.7,151.9z"/>
	<path fill="#314C9A" d="M80.8,179c1.9-6.5,4.3-12.9,7-19.2c10.5,4.9,20.1,11.1,27.5,20.3c7.8,9.7,11.5,20.9,13.1,33
		c0.1,0.6,0.2,1.2-0.6,1.6c-1.6-5.3-3.7-10.2-7.1-14.6c-3.6-4.8-8.4-8.4-13.5-11.2C98.9,184.4,90.1,181,80.8,179z"/>
	<path fill="#E52F28" d="M80.9,42.2c2.6-1.7,5.3-3.2,7.8-5c1.2-0.8,1.7-0.5,2.3,0.5c3.8,5.8,7.6,11.6,11.5,17.3
		c0.9,1.3,0.5,1.8-0.6,2.5c-4.3,2.8-8.6,5.7-12.9,8.6c-0.5,0.3-0.9,0.5-1.4,0.8C72,77.2,56.5,87.5,40.9,97.7
		c-4.8,3.1-9.4,6.5-14.3,9.3c-0.7-1.5-1.4-3-1.9-4.6c-2.2-7.3-2.1-14.7-1.3-22.1c9.6-6.3,19.2-12.7,28.9-19
		c9.2-6.1,18.4-12.2,27.7-18.3C80.3,42.8,80.6,42.5,80.9,42.2z"/>
	<path fill="#304B99" d="M56,141.7c-6.2,4.1-12.4,8.1-18.5,12.2c-1.2,0.8-1.8,0.9-2.6-0.5c-3.7-5.8-7.6-11.6-11.5-17.4
		c-0.8-1.1-0.6-1.7,0.5-2.4c2.2-1.4,4.4-2.9,6.5-4.4c0.5-0.3,1.1-0.6,1.6-0.9c12.5-8.3,25-16.6,37.6-24.8c4.3-2.8,8.4-5.8,12.8-8.3
		c-0.6,11.3-2.8,22.2-5.8,33.1c-0.3,0.1-0.6,0-0.8,0.2C69.2,132.9,62.6,137.3,56,141.7z"/>
</g>
</svg>
